<svg xmlns="http://www.w3.org/2000/svg" width="480" height="42" preserveAspectRatio="none" viewBox="0 0 480 42"><path fill="#FFE200" fill-opacity=".75" d="m.7884025 41.3449275c15.8171024-1.6206809 71.8777185-.9529412 87.8950374-1.5331327 16.0173191-.5801915 83.3901661-.745318 100.1082431-.667414 16.718076.0779039 83.089842-.0805484 99.607702.4720956s171.593663-4.1777204 188.411848-.5026041c3.203464.64141 4.604979-37.03709852 1.301407-37.67784118-16.217535-3.4897587-170.292256 1.04456951-186.710008.30189599s-84.391249-.1001373-101.509758.0139905c-17.11851.1141278-84.191033.7506573-101.2094341 1.7162471-17.0184014.9655898-47.6903594-.51449033-88.09525389.58732435-.90097419.38473091-.7007577 37.29511244.20021649 37.28943844z"/></svg>